# xmcd
#
# Track frame offsets:
#	150
#	12833
#	29260
#	46580
#	63533
#	77598
#	88613
#	106053
#	123203
#	138495
#	153960
#	167595
#	187870
#	204990
#
# Disc length: 2938 seconds
#
# Revision: 0
# Processed by: cddbd v1.5.2PL0 Copyright (c) Steve Scherf et al.
# Submitted via: audiograbber 1.83.01
#
DISCID=9e0b780e
DTITLE=Kenny Rogers - The Best of Kenny Rogers Vol. 2
DYEAR=1900
DGENRE=Country
TTITLE0=All I Ever Need Is You
TTITLE1=If I Ever Fall In Love Again
TTITLE2=Islands In The Stream
TTITLE3=If I Knew Then What I Know Now
TTITLE4=Everty Time Two Fools Collide
TTITLE5=Anyone Whi Is'nt Me Tonight
TTITLE6=Twenty Years Ago
TTITLE7=Don't Fall In Love With A Dreamer
TTITLE8=Lucille
TTITLE9=The Gambler
TTITLE10=Baby, Don't Take Your Love To Town
TTITLE11=Coward Of The County
TTITLE12=You Decorated My Life
TTITLE13=I Don't Need You
EXTD=
EXTT0=
EXTT1=
EXTT2=
EXTT3=
EXTT4=
EXTT5=
EXTT6=
EXTT7=
EXTT8=
EXTT9=
EXTT10=
EXTT11=
EXTT12=
EXTT13=
PLAYORDER=
